<?xml version="1.0" encoding="utf-8"?>
<svg width="153" height="66" viewBox="0 0 153 66" fill="none" xmlns="http://www.w3.org/2000/svg" xmlns:xlink="http://www.w3.org/1999/xlink" version="1.1">
<path d="M96.6884 27.3924C96.3094 27.7614 96.3044 28.3648 96.6735 28.7438L98.01 30.1102C98.379 30.4843 98.9824 30.4942 99.3564 30.1252L112.647 17.1991L109.904 14.5361L96.6884 27.3924Z" fill="white"/>
<path d="M142.912 18.1019C141.75 18.1019 140.653 18.4061 139.705 18.9347L124.934 4.73199C123.498 3.35061 121.259 3.36059 119.837 4.75193L113.913 10.5467L104.114 1.12645C102.543 -0.384577 100.094 -0.374604 98.5332 1.15139L71.1601 27.9211C70.7811 28.2901 70.7761 28.8935 71.1452 29.2725L72.4816 30.639C72.8507 31.018 73.4541 31.023 73.8331 30.6539L101.206 3.88421C101.281 3.8144 101.396 3.8144 101.466 3.88421L119.598 21.3234C118.999 22.3208 118.645 23.4828 118.645 24.7245C118.645 28.3749 121.613 31.3421 125.263 31.3421C128.913 31.3421 131.881 28.3749 131.881 24.7245C131.881 21.0741 128.913 18.1069 125.263 18.1069C124.251 18.1069 123.293 18.3413 122.435 18.7502L116.666 13.1998L122.396 7.59447L137.042 21.6775C136.568 22.5901 136.294 23.6224 136.294 24.7195C136.294 28.3699 139.261 31.3371 142.912 31.3371C146.562 31.3371 149.529 28.3699 149.529 24.7195C149.529 21.0691 146.562 18.1019 142.912 18.1019ZM125.263 21.9218C126.804 21.9218 128.061 23.1785 128.061 24.7195C128.061 26.2605 126.804 27.5172 125.263 27.5172C123.722 27.5172 122.465 26.2605 122.465 24.7195C122.465 23.1785 123.722 21.9218 125.263 21.9218ZM142.912 27.5172C141.371 27.5172 140.114 26.2605 140.114 24.7195C140.114 23.1785 141.371 21.9218 142.912 21.9218C144.453 21.9218 145.709 23.1785 145.709 24.7195C145.709 26.2605 144.453 27.5172 142.912 27.5172Z" fill="white"/>
<path d="M77.6377 19.2088L80.3805 16.5458L75.6779 11.9778C74.2117 10.5515 71.9128 10.5515 70.4466 11.9827L54.663 27.3923C54.284 27.7613 54.2791 28.3647 54.6481 28.7437L55.9846 30.1101C56.3536 30.4891 56.957 30.4941 57.336 30.1251L73.0697 14.7654L77.6377 19.2088Z" fill="white"/>
<path d="M82.0687 52.9713V35.1182C82.0687 34.5746 81.6298 34.1357 81.0863 34.1357H75.4162C75.0521 34.1357 74.718 34.3352 74.5484 34.6544L66.8237 49.1364L59.094 34.6544C58.9245 34.3352 58.5903 34.1357 58.2263 34.1357H52.5312C51.9877 34.1357 51.5488 34.5746 51.5488 35.1182V52.9713C51.5488 53.5149 51.9877 53.9537 52.5312 53.9537H55.9174C56.4609 53.9537 56.8998 53.5149 56.8998 52.9713V40.0353L63.9812 53.4301C64.1507 53.7542 64.4849 53.9537 64.8489 53.9537H68.7985C69.1626 53.9537 69.4967 53.7542 69.6663 53.4301L76.7477 40.0353V52.9713C76.7477 53.5149 77.1865 53.9537 77.7301 53.9537H81.0863C81.6298 53.9537 82.0687 53.5149 82.0687 52.9713Z" fill="white"/>
<path d="M116.636 34.1357H110.966C110.602 34.1357 110.268 34.3352 110.098 34.6544L102.369 49.1364L94.6389 34.6544C94.4694 34.3352 94.1353 34.1357 93.7712 34.1357H88.0762C87.5326 34.1357 87.0938 34.5746 87.0938 35.1182V52.9713C87.0938 53.5149 87.5326 53.9537 88.0762 53.9537H91.4623C92.0059 53.9537 92.4447 53.5149 92.4447 52.9713V40.0353L99.5261 53.4301C99.6957 53.7542 100.03 53.9537 100.394 53.9537H104.343C104.708 53.9537 105.042 53.7542 105.211 53.4301L112.293 40.0353V52.9713C112.293 53.5149 112.731 53.9537 113.275 53.9537H116.631C117.175 53.9537 117.614 53.5149 117.614 52.9713V35.1182C117.619 34.5746 117.175 34.1357 116.636 34.1357Z" fill="white"/>
<path d="M128 52.9713V35.1182C128 34.5746 127.562 34.1357 127.018 34.1357H123.632C123.088 34.1357 122.649 34.5746 122.649 35.1182V52.9713C122.649 53.5149 123.088 53.9537 123.632 53.9537H127.018C127.562 53.9537 128 53.5149 128 52.9713Z" fill="white"/>
<path d="M152.017 34.1357H132.663C132.12 34.1357 131.681 34.5746 131.681 35.1182V37.467C131.681 38.0106 132.12 38.4494 132.663 38.4494H139.665V52.9713C139.665 53.5149 140.104 53.9537 140.647 53.9537H144.033C144.577 53.9537 145.016 53.5149 145.016 52.9713V38.4494H152.017C152.561 38.4494 153 38.0106 153 37.467V35.1182C153 34.5746 152.561 34.1357 152.017 34.1357Z" fill="white"/>
<path d="M46.1916 34.1357H42.8204C42.2768 34.1357 41.838 34.5746 41.838 35.1182V44.6182C41.838 47.5106 39.4891 49.8595 36.5967 49.8595H34.8663C31.9739 49.8595 29.6251 47.5106 29.6251 44.6182V35.1182C29.6251 34.5746 29.1862 34.1357 28.6426 34.1357H25.2715C24.7279 34.1357 24.2891 34.5746 24.2891 35.1182V44.5933C24.2891 50.049 28.7124 54.4674 34.1631 54.4674H37.2949C42.7506 54.4674 47.169 50.044 47.169 44.5933V35.1182C47.174 34.5746 46.7351 34.1357 46.1916 34.1357Z" fill="white"/>
<path d="M52.7042 58.9653H51.5322V65.6727H52.7042V58.9653Z" fill="white"/>
<path d="M60.8928 63.7129L57.746 58.9653H56.5791V65.6677H57.7361V60.9152L60.8928 65.6677H62.0448V58.9653H60.8928V63.7129Z" fill="white"/>
<path d="M65.3291 60.0475H67.289V65.6677H68.4659V60.0475H70.4307V58.9653H65.3291V60.0475Z" fill="white"/>
<path d="M73.7129 65.6677H77.877V64.5856H74.8848V62.8053H77.5628V61.773H74.8848V60.0475H77.877V58.9653H73.7129V65.6677Z" fill="white"/>
<path d="M86.51 61.0548C86.51 59.7333 85.6224 58.9653 84.0964 58.9653H81.5381V65.6727H82.71V63.1693H84.1512L85.2882 65.6727H86.5749L85.2982 62.9199C86.0861 62.5958 86.51 61.9525 86.51 61.0548ZM84.0964 62.127H82.71V60.0076H84.0964C84.8394 60.0076 85.2783 60.3816 85.2783 61.0548C85.2783 61.7331 84.8394 62.127 84.0964 62.127Z" fill="white"/>
<path d="M92.9076 64.6499C91.6808 64.6499 90.8879 63.7323 90.8879 62.311C90.8879 60.8798 91.6659 59.9821 92.9076 59.9821C93.7953 59.9821 94.4685 60.4409 94.6979 61.2189H95.9347C95.7053 59.7777 94.5234 58.8501 92.9375 58.8501C90.9727 58.8501 89.6611 60.2365 89.6611 62.316C89.6611 64.4155 90.9278 65.7769 92.8827 65.7769C94.4685 65.7769 95.7003 64.8394 95.9546 63.4281H94.7328C94.5084 64.1711 93.8152 64.6499 92.9076 64.6499Z" fill="white"/>
<path d="M102.26 58.8457C100.34 58.8457 99.0137 60.2769 99.0137 62.3116C99.0137 64.3562 100.335 65.7775 102.25 65.7775C104.175 65.7775 105.517 64.3463 105.517 62.3116C105.517 60.267 104.175 58.8457 102.26 58.8457ZM102.26 64.6505C101.033 64.6505 100.24 63.7428 100.24 62.3116C100.24 60.8804 101.028 59.9727 102.26 59.9727C103.492 59.9727 104.28 60.8804 104.28 62.3116C104.275 63.7229 103.487 64.6505 102.26 64.6505Z" fill="white"/>
<path d="M113.3 63.7129L110.153 58.9653H108.991V65.6677H110.143V60.9152L113.3 65.6677H114.457V58.9653H113.3V63.7129Z" fill="white"/>
<path d="M122.642 63.7129L119.495 58.9653H118.328V65.6677H119.485V60.9152L122.642 65.6677H123.794V58.9653H122.642V63.7129Z" fill="white"/>
<path d="M127.658 65.6677H131.827V64.5856H128.835V62.8053H131.513V61.773H128.835V60.0475H131.827V58.9653H127.658V65.6677Z" fill="white"/>
<path d="M138.347 64.6499C137.12 64.6499 136.327 63.7323 136.327 62.311C136.327 60.8798 137.105 59.9821 138.347 59.9821C139.235 59.9821 139.908 60.4409 140.137 61.2189H141.374C141.145 59.7777 139.963 58.8501 138.377 58.8501C136.412 58.8501 135.101 60.2365 135.101 62.316C135.101 64.4155 136.367 65.7769 138.322 65.7769C139.908 65.7769 141.14 64.8394 141.394 63.4281H140.172C139.953 64.1711 139.255 64.6499 138.347 64.6499Z" fill="white"/>
<path d="M143.878 60.0475H145.843V65.6677H147.015V60.0475H148.98V58.9653H143.878V60.0475Z" fill="white"/>
<path d="M13.6591 42.1841C12.5919 41.9348 11.6394 41.7203 10.7966 41.5308C6.74728 40.6232 5.23625 40.2841 5.23625 39.2518C5.23625 38.9227 5.35594 38.6484 5.60029 38.419C6.27353 37.7757 7.91921 37.5014 10.3578 37.6211C13.6043 37.7807 16.3271 38.5536 17.8481 39.0773C18.4865 39.2967 19.1547 38.8279 19.1547 38.1497V35.9205C19.1547 35.4867 18.8704 35.1027 18.4515 34.978C14.482 33.7911 8.82682 33.1728 4.61787 34.3696C0 35.6862 0 38.3691 0 39.2518C0 42.1143 2.30894 44.0741 7.05148 45.2461C8.25333 45.5403 9.30058 45.7846 10.2232 46.0041C14.2326 46.9416 15.5841 47.2558 15.5492 48.4875C15.5492 50.1781 11.9835 50.4324 9.85911 50.4324C6.12891 50.4324 3.14674 49.5398 1.53098 48.9164C0.887669 48.6671 0.199476 49.1458 0.199476 49.834V52.0781C0.199476 52.502 0.463782 52.876 0.867721 53.0107C3.3512 53.8435 6.84702 54.402 10.2232 54.402C12.3027 54.402 14.3374 54.1876 16.0628 53.6989C20.177 52.5269 20.7904 49.9338 20.7904 48.4875C20.7804 46.1886 19.9376 43.6502 13.6591 42.1841Z" fill="white"/>
</svg>
